<?xml version="1.0" encoding="UTF-8" standalone="no"?>
<svg
   xmlns:dc="http://purl.org/dc/elements/1.1/"
   xmlns:cc="http://creativecommons.org/ns#"
   xmlns:rdf="http://www.w3.org/1999/02/22-rdf-syntax-ns#"
   xmlns:svg="http://www.w3.org/2000/svg"
   xmlns="http://www.w3.org/2000/svg"
   xmlns:sodipodi="http://sodipodi.sourceforge.net/DTD/sodipodi-0.dtd"
   xmlns:inkscape="http://www.inkscape.org/namespaces/inkscape"
   inkscape:version="1.0beta1 (b2762e8, 2019-10-21)"
   sodipodi:docname="t-systems-logo_1.svg"
   xml:space="preserve"
   enable-background="new 69.625 4.701 416.853 77.397"
   viewBox="69.625 4.701 120 22.28"
   height="22.280001"
   width="120"
   y="0px"
   x="0px"
   id="Ebene_1"
   version="1.1"><metadata
   id="metadata74"><rdf:RDF><cc:Work
       rdf:about=""><dc:format>image/svg+xml</dc:format><dc:type
         rdf:resource="http://purl.org/dc/dcmitype/StillImage" /><dc:title></dc:title></cc:Work></rdf:RDF></metadata><defs
   id="defs72" /><sodipodi:namedview
   inkscape:current-layer="Ebene_1"
   inkscape:window-maximized="0"
   inkscape:window-y="23"
   inkscape:window-x="26"
   inkscape:cy="12.567846"
   inkscape:cx="60.463653"
   inkscape:zoom="5.6"
   inkscape:guide-bbox="true"
   showguides="true"
   showgrid="false"
   id="namedview70"
   inkscape:window-height="639"
   inkscape:window-width="1310"
   inkscape:pageshadow="2"
   inkscape:pageopacity="0"
   guidetolerance="10"
   gridtolerance="10"
   objecttolerance="10"
   borderopacity="1"
   inkscape:document-rotation="0"
   bordercolor="#666666"
   pagecolor="#ffffff" />
<path
   style="fill:#ffffff;stroke-width:0.287871"
   inkscape:connector-curvature="0"
   id="path43"
   d="m 69.591569,15.987993 v -3.04338 h 3.04309 v 3.04338 z"
   fill="#E20074" />
<path
   style="fill:#ffffff;stroke-width:0.287871"
   inkscape:connector-curvature="0"
   id="path45"
   d="m 80.554859,15.987993 v -3.04338 h 3.04337 v 3.04338 z"
   fill="#E20074" />
<path
   style="fill:#ffffff;stroke-width:0.287871"
   inkscape:connector-curvature="0"
   id="path47"
   d="m 89.960479,15.987993 v -3.04338 h 3.04337 v 3.04338 z"
   fill="#E20074" />
<path
   style="fill:#ffffff;stroke-width:0.287871"
   inkscape:connector-curvature="0"
   id="path49"
   d="m 99.366089,15.987993 v -3.04338 h 3.043091 v 3.04338 z"
   fill="#E20074" />
<path
   style="fill:#ffffff;stroke-width:0.287871"
   inkscape:connector-curvature="0"
   id="path51"
   d="m 114.2833,10.761113 c -0.31148,-1.540111 -0.71536,-2.676051 -1.21194,-3.4084009 -0.79107,-1.16962 -1.80092,-1.75457 -3.02956,-1.75457 -0.74904,0 -1.38005,0.22713 -1.89362,0.68168 -0.62266,0.55559 -0.93414,1.28764 -0.93414,2.1964499 0,0.95948 0.33652,1.71687 1.00985,2.272171 0.41252,0.34516 1.20762,0.71968 2.38588,1.12356 1.72521,0.59762 2.88246,1.11522 3.47144,1.55278 1.25397,0.92579 1.88095,2.21344 1.88095,3.86294 0,1.58214 -0.51327,2.90347 -1.54011,3.96399 -0.94249,0.98452 -2.10808,1.47678 -3.49677,1.47678 -0.7407,0 -1.4264,-0.13472 -2.05771,-0.40388 -0.26944,-0.10939 -0.71104,-0.35754 -1.32536,-0.74473 -0.20208,-0.12608 -0.39985,-0.18913 -0.5933,-0.18913 -0.22713,0 -0.43324,0.11745 -0.61835,0.35351 -0.0841,0.11774 -0.19776,0.30716 -0.34084,0.56826 h -0.79538 v -6.2494 h 0.82072 c 0.30284,1.58214 0.71968,2.78976 1.24965,3.62315 0.89211,1.40539 2.06605,2.10779 3.52181,2.10779 0.85009,0 1.55681,-0.24786 2.12075,-0.74472 0.71536,-0.63965 1.0729,-1.51881 1.0729,-2.63834 0,-1.32968 -0.55531,-2.3142 -1.6662,-2.95385 -0.35351,-0.20208 -1.32536,-0.57229 -2.91614,-1.11089 -1.12759,-0.37855 -2.01135,-0.85009 -2.651,-1.41374 -0.94249,-0.82475 -1.41374,-1.96098 -1.41374,-3.4084013 0,-1.5654397 0.51327,-2.8024196 1.54011,-3.7115196 0.8331,-0.74904 1.84727,-1.12327 3.04223,-1.12327 0.64799,0 1.28764,0.12608 1.91895,0.37855 0.26081,0.10939 0.66901,0.33249 1.22431,0.66901 0.17675,0.10104 0.33652,0.15142 0.4796,0.15142 0.26109,0 0.52191,-0.26945 0.783,-0.80777 h 0.70673 v 5.6805709 c 0,0 -0.74472,0 -0.74472,0 z"
   fill="#E20074" />
<path
   style="fill:#ffffff;stroke-width:0.287871"
   inkscape:connector-curvature="0"
   id="path53"
   d="m 116.65651,10.420273 h 5.39039 v 0.79539 h -0.46722 c -0.69837,0 -1.04785,0.18942 -1.04785,0.56797 0,0.15142 0.059,0.38315 0.17675,0.69434 l 2.58768,6.76613 2.24712,-6.2612 c 0.16006,-0.43757 0.2398,-0.77841 0.2398,-1.02252 0,-0.49658 -0.37855,-0.74472 -1.13594,-0.74472 h -0.56826 v -0.79539 h 4.24149 v 0.79539 h -0.27779 c -0.26945,0 -0.49226,0.0904 -0.66901,0.27146 -0.17676,0.18107 -0.34919,0.49024 -0.5176,0.92781 l -4.27892,11.51255 c -0.40388,1.06886 -0.85008,1.83892 -1.33802,2.31016 -0.50493,0.48794 -1.12788,0.73206 -1.86829,0.73206 -0.63101,0 -1.16127,-0.18107 -1.59048,-0.54293 -0.52191,-0.44591 -0.78273,-1.0015 -0.78273,-1.6662 0,-0.41251 0.11774,-0.75738 0.35351,-1.03518 0.25246,-0.31148 0.59762,-0.46722 1.03547,-0.46722 0.4796,0 0.84577,0.17676 1.09794,0.53026 0.15142,0.21044 0.22713,0.45023 0.22713,0.71968 0,0.38719 -0.13846,0.71104 -0.41626,0.97185 -0.1684,0.16006 -0.39121,0.26082 -0.66901,0.30313 0.19345,0.21879 0.45858,0.32846 0.79539,0.32846 0.49658,0 0.92982,-0.19805 1.30031,-0.59359 0.33652,-0.36185 0.71104,-1.12327 1.12328,-2.28512 l 0.27779,-0.80777 -3.54715,-9.5435 c -0.27779,-0.72371 -0.51327,-1.17394 -0.70672,-1.3507 -0.21907,-0.21043 -0.55128,-0.3155 -0.99748,-0.3155 h -0.21446 v -0.7951 c 0,0 -8.6e-4,0 -8.6e-4,0 z"
   fill="#E20074" />
<path
   style="fill:#ffffff;stroke-width:0.287871"
   inkscape:connector-curvature="0"
   id="path55"
   d="m 136.81613,10.420273 v 3.7619 h -0.78272 c -0.42087,-2.17976 -1.4264,-3.26935 -3.01689,-3.26935 -0.57229,0 -1.03519,0.17243 -1.3884,0.51759 -0.3705,0.3535 -0.5556,0.78675 -0.5556,1.30031 0,0.58899 0.25678,1.0562 0.77006,1.40136 0.25246,0.16812 0.71133,0.36185 1.37574,0.58064 1.431,0.45454 2.39019,0.86275 2.87842,1.22431 0.9422,0.71536 1.41374,1.65382 1.41374,2.81481 0,1.17854 -0.4082,2.14205 -1.22461,2.89109 -0.69003,0.62266 -1.57782,0.93385 -2.66367,0.93385 -0.61432,0 -1.18229,-0.10939 -1.7042,-0.32817 -0.2942,-0.11774 -0.68571,-0.32817 -1.17394,-0.63101 -0.12609,-0.076 -0.22713,-0.11371 -0.30284,-0.11371 -0.1684,0 -0.33249,0.26944 -0.49255,0.80805 h -0.73205 v -4.38054 h 0.73205 c 0.2945,1.06887 0.61461,1.85159 0.95948,2.34788 0.68168,0.97617 1.58646,1.4644 2.71405,1.4644 0.648,0 1.16156,-0.22281 1.5404,-0.66901 0.36185,-0.41252 0.54292,-0.89211 0.54292,-1.43907 0,-0.79107 -0.35379,-1.40567 -1.06051,-1.84295 -0.37855,-0.22713 -1.14055,-0.52594 -2.28513,-0.89614 -1.02654,-0.33681 -1.78624,-0.78675 -2.2785,-1.35069 -0.49226,-0.56366 -0.73839,-1.27067 -0.73839,-2.12075 0,-1.00151 0.35351,-1.80927 1.06052,-2.42359 0.63965,-0.5553 1.44742,-0.833101 2.42359,-0.833101 0.86707,0 1.68347,0.231451 2.44921,0.694351 0.15142,0.0924 0.27779,0.13875 0.37855,0.13875 0.1684,0 0.29449,-0.19345 0.37855,-0.58064 h 0.78272 z"
   fill="#E20074" />
<path
   style="fill:#ffffff;stroke-width:0.287871"
   inkscape:connector-curvature="0"
   id="path57"
   d="m 141.90339,11.304033 v 7.15763 c 0,0.91745 0.0633,1.59452 0.18942,2.03266 0.19345,0.6647 0.60165,0.99719 1.22461,0.99719 0.572,0 0.9802,-0.29046 1.22431,-0.8711 0.23548,-0.55559 0.3538,-1.23266 0.3538,-2.03237 v -0.35351 h 0.85814 v 0.4796 c 0,2.575 -1.0182,3.86265 -3.05489,3.86265 -1.00985,0 -1.75861,-0.29017 -2.24712,-0.87081 -0.36186,-0.43756 -0.58064,-0.96379 -0.65635,-1.57782 -0.0504,-0.4629 -0.0757,-1.0182 -0.0757,-1.6662 v -7.15792 h -1.86828 v -0.73205 c 1.16962,-0.26082 1.98199,-0.7320613 2.43654,-1.413741 0.47124,-0.74904 0.76171,-1.8222299 0.87081,-3.2189799 h 0.74472 v 4.4813009 h 3.47173 v 0.88376 l -3.47173,-2.9e-4 v 0 z"
   fill="#E20074" />
<path
   style="fill:#ffffff;stroke-width:0.287871"
   inkscape:connector-curvature="0"
   id="path59"
   d="m 156.01686,16.277873 h -7.06926 c 0.008,1.6662 0.18079,2.89887 0.51759,3.69857 0.47125,1.12788 1.27902,1.69182 2.42359,1.69182 0.89212,0 1.63713,-0.35379 2.23446,-1.06052 0.32846,-0.38747 0.65635,-0.92147 0.98481,-1.60344 l 0.77005,0.40417 c -1.08556,2.17948 -2.54996,3.26936 -4.3932,3.26936 -1.35472,0 -2.46562,-0.4629 -3.3324,-1.3887 -1.07721,-1.15292 -1.61582,-2.81912 -1.61582,-4.99888 0,-2.00301 0.53861,-3.60587 1.61582,-4.80946 0.8498,-0.95084 1.87232,-1.426411 3.06727,-1.426411 1.77588,0 3.10987,0.892121 4.0017,2.676051 0.47959,0.95113 0.74472,2.13342 0.79539,3.54744 z m -2.38588,-0.9091 c 0,-1.05188 -0.11371,-1.91895 -0.34084,-2.60062 -0.41252,-1.20331 -1.06052,-1.80525 -1.94428,-1.80525 -0.99287,0 -1.69585,0.7407 -2.10808,2.2218 -0.16812,0.59762 -0.25678,1.32535 -0.26513,2.18379 h 4.65833 z"
   fill="#E20074" />
<path
   style="fill:#ffffff;stroke-width:0.287871"
   inkscape:connector-curvature="0"
   id="path61"
   d="m 170.94989,22.311943 v -7.27134 c 0,-1.49808 -0.1045,-2.4659 -0.31522,-2.90347 -0.28585,-0.57229 -0.73206,-0.85843 -1.33774,-0.85843 -0.72399,0 -1.30952,0.4082 -1.75544,1.22432 -0.24411,0.4462 -0.40388,0.93414 -0.47988,1.4644 -0.0587,0.38718 -0.0878,1.11924 -0.0878,2.19674 v 3.25669 c 0.008,0.96782 0.11314,1.56141 0.31522,1.7802 0.16812,0.20179 0.50119,0.30687 0.99776,0.3155 h 0.3656 v 0.79568 h -3.86266 v -6.86746 c 0,-1.17825 -0.0253,-1.94399 -0.076,-2.2975 -0.17647,-1.25397 -0.71853,-1.88095 -1.62734,-1.88095 -0.73206,0 -1.30924,0.41655 -1.73011,1.24965 -0.21014,0.40388 -0.3535,0.82907 -0.42921,1.27498 -0.0841,0.45455 -0.12609,1.24562 -0.12609,2.3735 v 3.25669 c 0.008,0.96782 0.10507,1.56141 0.29104,1.78019 0.17675,0.2018 0.51701,0.30687 1.02194,0.31551 h 0.36675 v 0.79568 h -5.59276 v -0.79568 h 0.41654 c 0.4796,-0.008 0.80806,-0.11371 0.98452,-0.31551 0.21044,-0.21014 0.31983,-0.80373 0.32847,-1.78019 v -6.13511 c -0.008,-0.96783 -0.11774,-1.5571 -0.32847,-1.76725 -0.17646,-0.20208 -0.50492,-0.30312 -0.98452,-0.30312 h -0.29046 v -0.79539 l 3.62344,-0.17676 v 2.09542 c 0.16754,-0.42087 0.40388,-0.79539 0.70672,-1.12356 0.64742,-0.69838 1.42151,-1.047851 2.32284,-1.047851 0.95889,0 1.72837,0.349181 2.30901,1.047851 0.25246,0.30313 0.48794,0.73205 0.70672,1.28765 0.74933,-1.55681 1.81446,-2.335221 3.19451,-2.335221 0.54696,0 1.05188,0.120051 1.51507,0.359841 0.46261,0.2398 0.8282,0.56999 1.09765,0.99086 0.30313,0.47124 0.48794,1.00985 0.55559,1.61582 0.0587,0.48794 0.089,1.02655 0.089,1.61582 v 4.67071 c 0.008,0.96782 0.11313,1.56141 0.31521,1.7802 0.16841,0.20179 0.50119,0.30687 0.99777,0.3155 h 0.28988 v 0.79568 l -3.78752,-2.9e-4 z"
   fill="#E20074" />
<path
   style="fill:#ffffff;stroke-width:0.287871"
   inkscape:connector-curvature="0"
   id="path63"
   d="m 183.54915,10.420273 v 3.7619 h -0.78272 c -0.42087,-2.17976 -1.42698,-3.26935 -3.01747,-3.26935 -0.57228,0 -1.03518,0.17243 -1.38869,0.51759 -0.3702,0.3535 -0.5553,0.78675 -0.5553,1.30031 0,0.58899 0.25736,1.0562 0.77063,1.40136 0.25246,0.16812 0.71047,0.36185 1.37516,0.58064 1.43072,0.45454 2.3902,0.86275 2.87814,1.22431 0.94249,0.71536 1.41402,1.65382 1.41402,2.81481 0,1.17854 -0.40762,2.14205 -1.22403,2.89109 -0.69002,0.62266 -1.57839,0.93385 -2.66425,0.93385 -0.61431,0 -1.18171,-0.10939 -1.70362,-0.32817 -0.2942,-0.11774 -0.68628,-0.32817 -1.17451,-0.63101 -0.12609,-0.076 -0.22713,-0.11371 -0.30284,-0.11371 -0.16841,0 -0.33192,0.26944 -0.49197,0.80805 h -0.73206 v -4.38054 h 0.73206 c 0.29449,1.06887 0.6146,1.85159 0.95947,2.34788 0.68168,0.97617 1.58588,1.4644 2.71347,1.4644 0.648,0 1.16128,-0.22281 1.5404,-0.66901 0.36186,-0.41252 0.5435,-0.89211 0.5435,-1.43907 0,-0.79107 -0.35379,-1.40567 -1.06051,-1.84295 -0.37855,-0.22713 -1.14112,-0.52594 -2.28541,-0.89614 -1.02655,-0.33681 -1.78653,-0.78675 -2.27822,-1.35069 -0.49312,-0.56366 -0.7381,-1.27067 -0.7381,-2.12075 0,-1.00151 0.35351,-1.80927 1.06052,-2.42359 0.63965,-0.5553 1.44742,-0.833101 2.42359,-0.833101 0.86707,0 1.68347,0.231451 2.44921,0.694351 0.15142,0.0924 0.27779,0.13875 0.37855,0.13875 0.1684,0 0.29449,-0.19345 0.37855,-0.58064 h 0.78243 z"
   fill="#E20074" />
<path
   style="fill:#ffffff;stroke-width:0.287871"
   inkscape:connector-curvature="0"
   id="path65"
   d="m 186.54848,15.987993 v -3.04338 h 3.04309 v 3.04338 z"
   fill="#E20074" />
<path
   style="fill:#ffffff;stroke-width:0.287871"
   inkscape:connector-curvature="0"
   id="path67"
   d="M 78.009499,5.9266021 V 18.953923 c 0,0.94249 0.0498,1.52342 0.14969,1.7422 0.17273,0.51327 0.75394,0.7784 1.74335,0.79539 h 0.65376 v 0.8331 h -7.66832 v -0.8331 h 0.65376 c 0.71737,0 1.20791,-0.13041 1.47102,-0.39122 0.18194,-0.16006 0.29507,-0.39985 0.34084,-0.71968 0.0541,-0.32817 0.0818,-0.80373 0.0818,-1.4264 V 5.9266021 h -0.57233 c -0.89874,0 -1.70708,0.24411 -2.42417,0.73205 -1.08066,0.74041 -1.70736,2.2258199 -1.87979,4.4559609 l -0.81727,-0.038 0.14998,-5.9836909 h 13.74297 l 0.10911,5.9836909 -0.83109,0.038 c -0.19057,-1.4140213 -0.50838,-2.512251 -0.95343,-3.294681 -0.39956,-0.6986699 -0.89873,-1.1949599 -1.49808,-1.4894499 -0.53573,-0.26081 -1.21251,-0.39553 -2.02949,-0.40388 0,0 -0.42231,0 -0.42231,0 z"
   fill="#E20074" />
</svg>
